<svg width="27" height="29" viewBox="0 0 27 29" fill="none" xmlns="http://www.w3.org/2000/svg">
<g filter="url(#filter0_d)">
<path opacity="0.3" d="M13.5 19.0909C8.25315 19.0909 4 14.8165 4 9.54546V11.4545C4 16.7255 8.25315 21 13.5 21C18.7459 21 23 16.7255 23 11.4545V9.54546C23 14.8165 18.7459 19.0909 13.5 19.0909Z" fill="#ABABAB"/>
<path d="M13.5 19.0909C18.7467 19.0909 23 14.8173 23 9.54545C23 4.27365 18.7467 0 13.5 0C8.25329 0 4 4.27365 4 9.54545C4 14.8173 8.25329 19.0909 13.5 19.0909Z" fill="white"/>
<path d="M13.5001 11.4545C14.5494 11.4545 15.4001 10.5998 15.4001 9.54546C15.4001 8.4911 14.5494 7.63637 13.5001 7.63637C12.4508 7.63637 11.6001 8.4911 11.6001 9.54546C11.6001 10.5998 12.4508 11.4545 13.5001 11.4545Z" fill="#ABABAB"/>
</g>
<defs>
<filter id="filter0_d" x="0" y="0" width="27" height="29" filterUnits="userSpaceOnUse" color-interpolation-filters="sRGB">
<feFlood flood-opacity="0" result="BackgroundImageFix"/>
<feColorMatrix in="SourceAlpha" type="matrix" values="0 0 0 0 0 0 0 0 0 0 0 0 0 0 0 0 0 0 127 0"/>
<feOffset dy="4"/>
<feGaussianBlur stdDeviation="2"/>
<feColorMatrix type="matrix" values="0 0 0 0 0 0 0 0 0 0 0 0 0 0 0 0 0 0 0.25 0"/>
<feBlend mode="normal" in2="BackgroundImageFix" result="effect1_dropShadow"/>
<feBlend mode="normal" in="SourceGraphic" in2="effect1_dropShadow" result="shape"/>
</filter>
</defs>
</svg>
